<?xml version="1.0" encoding="UTF-8"?>
<!-- Generator: Adobe Illustrator 27.2.0, SVG Export Plug-In . SVG Version: 6.00 Build 0)  -->
<svg xmlns="http://www.w3.org/2000/svg" xmlns:xlink="http://www.w3.org/1999/xlink" version="1.1" id="_层_2" x="0px" y="0px" viewBox="0 0 115 41.3" style="enable-background:new 0 0 115 41.3;" xml:space="preserve">
<style type="text/css">
	.st0{fill:#003285;}
</style>
<g id="_层_1-2">
	<g>
		<polygon class="st0" points="29.9,19.9 25.6,19.9 28.6,0 32.9,0   "></polygon>
		<polygon class="st0" points="9.3,27.3 9.3,39.4 13.2,39.4 13.2,29.6 15.3,29.6 15.3,41.2 1.1,41.2 1.1,29.6 3.3,29.5 3.3,39.4     7,39.4 7,27.3   "></polygon>
		<path class="st0" d="M47.2,29.8h-9.3c-0.1,0.4-0.2,0.7-0.3,1.2s-0.2,1-0.4,1.4l-0.3,1H46v7.8H35.4v-5.1c-0.8,0.9-1.4,1.5-1.9,2    s-1.1,0.9-1.7,1.4c-0.4-1-0.6-1.5-0.7-1.7l-0.3-0.4c0.2-0.1,0.4-0.2,0.6-0.3s0.6-0.5,1.3-1c0.6-0.6,1.1-1.2,1.5-1.8s0.7-1.3,0.9-2    c0.3-0.7,0.4-1.3,0.5-1.8l0.1-0.5h-4.5v-2h16.1L47.2,29.8L47.2,29.8z M37.5,39.5h6.4v-4.3h-6.4V39.5z"></path>
		<path class="st0" d="M62.7,41.2V28h12.1h2v11.4c0,0.3,0,0.7-0.1,0.9c-0.1,0.3-0.4,0.5-0.9,0.7s-1.3,0.3-2.4,0.3    c0-0.2,0-0.3-0.1-0.6c0-0.2-0.2-0.6-0.4-1.2L72.7,39c0.4,0.1,0.8,0.1,1.2,0.1c0.4,0,0.7,0,0.8-0.2c0.1-0.1,0.1-0.3,0.1-0.5v-8.7    H65v2.2c0.2-0.1,0.3-0.1,0.5-0.2s0.5-0.3,0.9-0.6c0.3,0.4,0.6,0.8,0.9,1.3c0.1-0.3,0.1-0.5,0.2-0.8s0.1-0.5,0.1-0.8v-0.7    c0.6,0.2,1.3,0.3,2.1,0.4c0,0.2-0.1,0.4-0.1,0.6c-0.1,0.3-0.1,0.4-0.1,0.4L69.3,32c0.5-0.2,0.9-0.4,1.1-0.6l0.4-0.3    c0.2,0.3,0.5,0.7,0.8,1.1c0.1-0.8,0.2-1.4,0.2-1.6v-0.5c0.7,0.1,1.4,0.2,2.2,0.3c0,0.2-0.1,0.4-0.1,0.5l-0.2,1    c-0.1,0.6-0.2,1.2-0.3,1.5l-0.2,1c0.8,1.3,1.3,2,1.3,2.1l0.3,0.5c-0.5,0.4-1.2,0.9-1.8,1.5c-0.2-0.5-0.2-0.5-0.2-0.6l-0.5-1.2    c-0.6,1-1,1.6-1.2,1.9s-0.5,0.6-0.8,0.9c-0.2-0.2-0.4-0.3-0.6-0.5c-0.2-0.1-0.6-0.4-1.2-0.7c0.6-0.5,1.1-1,1.4-1.5    s0.6-0.6,0.8-1.1L71,35c-0.3-0.6-0.6-1-0.7-1.2s-0.5-0.9-1-1.5C69.1,33,69,33.7,69,33.9l-0.2,0.6c0.4,0.7,0.9,1.4,1.3,2.2    c-0.7,0.3-1.1,0.6-1.3,0.8l-0.4,0.3c-0.1-0.4-0.2-0.6-0.2-0.7L68,36.7c-0.1,0.2-0.2,0.4-0.4,0.7c-0.2,0.3-0.6,0.8-1.2,1.6    c-0.1-0.2-0.3-0.4-0.4-0.5c-0.1-0.2-0.4-0.5-0.9-0.9v3.6C64.9,41.3,62.7,41.3,62.7,41.2z M64.9,37.4c0.4-0.4,0.7-0.8,0.9-1.2    c0.2-0.4,0.5-0.9,0.7-1.6c-0.7-1-1.1-1.6-1.2-1.7l-0.4-0.6V37.4L64.9,37.4z"></path>
		<path class="st0" d="M95.4,41.2v-4.8c-0.1,0.1-3,2.6-3,2.6v-3l3-2.9h-1.6h-1.4v-1.9h1.4h1.6V30c-0.5,0.1-2.9,0.5-3,0.5l-0.1-2.2    c0,0,6.5-1,6.6-1l1.1,1.9l-2.6,0.5v1.7h0.9h1.2v1.9h-1.2h-0.9V35c0.2-0.1,1.2-0.8,1.2-0.8l1.7,2.2c0,0-1,0.8-1.2,0.9l5.5-1.1v-8.8    h2v8.4l2.2-0.5v1.8l-2.2,0.5v3.7h-2V38l-6,1.1v-1.8v-0.1c0,0-1.1-1.5-1.1-1.6v5.6H95.4L95.4,41.2z M100.8,32.2l2.4,2.1l-1.4,1.5    l-2.5-2.3C99.3,33.5,100.7,32.2,100.8,32.2z M99.6,29.5l1.6-1.3c0.3,0.3,2.4,2.1,2.4,2.1l-1.4,1.5C102.1,31.8,99.6,29.5,99.6,29.5    z"></path>
		<path class="st0" d="M109.1,14.4c-1,1.7-2.3,3.1-3.8,4s-3.2,1.4-4.9,1.4c-1,0-1.9-0.2-2.7-0.5c-0.8-0.4-1.6-0.9-2.2-1.6    s-1-1.5-1.3-2.4c-0.2-0.9-0.3-1.8-0.1-2.8c0.1-1,0.5-1.9,1-2.8c0.5-0.9,1.2-1.7,2-2.4s1.7-1.2,2.6-1.5c0.9-0.4,1.9-0.5,2.9-0.5    c1.5,0,2.8,0.4,3.8,1.1c1.1,0.8,1.9,1.8,2.4,3.3l-7.8,4.6l-1.4-2.6l4.2-2.6c-0.2-0.2-0.5-0.3-0.7-0.4c-0.3-0.1-0.5-0.1-0.8-0.1    c-0.9,0-1.7,0.3-2.4,1c-0.7,0.7-1.2,1.5-1.3,2.4c-0.1,1,0.1,1.8,0.6,2.5s1.2,1,2.2,1c0.8,0,1.7-0.2,2.5-0.7s1.5-1.2,2.2-2.1    L109.1,14.4L109.1,14.4z"></path>
		<path class="st0" d="M26.5,2.9C26.4,3.5,25.8,4,25.1,4h-1.9c-0.6,0-1.1-0.5-1-1.1l0.3-1.8C22.6,0.5,23.2,0,23.8,0h1.9    c0.7,0,1.1,0.5,1,1.1C26.8,1.1,26.5,2.9,26.5,2.9z"></path>
		<polygon class="st0" points="20.9,0 20.8,0.9 18.1,19 17.9,19.9 13.4,19.9 14.6,11.6 6.4,11.6 5.2,19.9 0.6,19.9 0.8,18.9     3.5,0.9 3.7,0 8.2,0 6.9,8.1 15.2,8.1 16.4,0   "></polygon>
		<polygon class="st0" points="21.8,5.4 26.1,5.4 23.9,19.9 19.6,19.9   "></polygon>
		<path class="st0" d="M59.4,8.5h3.9l0.5-3.1h-3.9L60.7,0h-3.3c0,0-0.2,0-0.7,0.3C56.2,0.7,56.2,1,56.2,1l-0.7,4.4H44    c-1.7,0-2.9,0.2-3.7,0.8c-1.3,0.8-2,2-2.2,3.5c-0.1,0.8-0.1,1.5,0.2,2.1s0.6,1.2,1.1,1.6c0.4,0.3,0.9,0.5,1.4,0.6s1.3,0.2,2.3,0.2    h2.6c1,0,1.6,0.1,1.8,0.2c0.5,0.2,0.7,0.6,0.6,1.2c-0.1,0.7-0.5,1.1-1.3,1.2c-0.3,0-1,0-1.9,0h-8.6L38.8,0h-3.3c0,0-0.3,0-0.7,0.3    s-0.4,0.6-0.4,0.6l-2.7,18c0,0,0,0.3,0.2,0.6c0.3,0.3,0.6,0.3,0.6,0.3h13.1c1.6,0,2.7-0.1,3.4-0.3c0.7-0.2,1.3-0.7,1.9-1.4    c0.8-0.9,1.2-1.9,1.4-2.9c0.2-1.4-0.2-2.4-1.1-3.2c-0.8-0.6-2.1-1-3.7-1H45c-1.1,0-1.8-0.1-2-0.2c-0.4-0.3-0.6-0.7-0.5-1.2    c0.1-0.6,0.4-1,0.9-1.2c0.2-0.1,0.8-0.1,1.7-0.1h10l-0.9,5.9c-0.3,2-0.1,3.3,0.5,4.2c0.7,0.8,1.9,1.2,3.8,1.2h3.1l0.5-3.1h-1.7    c-0.9,0-1.5-0.2-1.8-0.7c-0.2-0.3-0.2-1.1,0-2.3L59.4,8.5L59.4,8.5z"></path>
		<path class="st0" d="M94.3,6.3l-2,12.7l-0.2,0.9h-4.3l1.7-11.4h-3.7c-0.8,0-1.3,0.2-1.7,0.5c-0.4,0.3-0.6,0.8-0.7,1.6L82,20h-4.3    l1.3-8.9c0.3-2,1.1-3.5,2.3-4.4c0.6-0.4,1.2-0.8,1.9-0.9c0.7-0.2,1.6-0.2,2.9-0.2h7.2c0,0,0.3,0,0.6,0.3C94.3,6,94.3,6.3,94.3,6.3    "></path>
		<path class="st0" d="M77.4,16c-0.2,1.3-0.7,2.3-1.4,2.9c-0.7,0.6-1.7,1-3,1h-7.2c-1.3,0-2.2-0.3-2.7-1s-0.7-1.6-0.5-2.9l1-6.6    c0.2-1.3,0.7-2.3,1.4-3s1.7-1,3-1h7.2c1.3,0,2.2,0.3,2.7,1s0.7,1.6,0.5,3C78.4,9.3,77.4,16,77.4,16z M66.9,16.5h6.2l1.2-7.7h-6.2    L66.9,16.5z"></path>
		<polygon class="st0" points="0,24.2 108.6,24.2 108.7,23.6 0.1,23.6   "></polygon>
	</g>
</g>
<g>
	<path class="st0" d="M110.8,5.4h-0.6V1.5h1.2c0.5,0,0.9,0.1,1.1,0.3c0.3,0.2,0.4,0.5,0.4,0.9c0,0.3-0.1,0.6-0.3,0.8   c-0.2,0.2-0.5,0.3-0.9,0.4l1.2,1.5h-0.8l-1.4-1.8V5.4z M110.8,3.6h0.3c0.4,0,0.7-0.1,0.9-0.2c0.2-0.1,0.3-0.3,0.3-0.6   c0-0.3-0.1-0.4-0.3-0.6c-0.2-0.1-0.5-0.2-0.8-0.2h-0.4V3.6z"></path>
	<path class="st0" d="M114.4,3.5c0,0.8-0.3,1.5-0.9,2.1c-0.6,0.5-1.4,0.8-2.2,0.8c-0.8,0-1.6-0.3-2.2-0.8c-0.6-0.5-0.9-1.3-0.9-2.1   c0-1.6,1.4-2.9,3.1-2.9C113.1,0.6,114.4,1.9,114.4,3.5z M111.3,0c-2,0-3.7,1.6-3.7,3.5c0,0.9,0.4,1.8,1.1,2.4c0.7,0.7,1.6,1,2.6,1   c1,0,1.9-0.4,2.6-1c0.7-0.6,1.1-1.5,1.1-2.4C115,1.6,113.4,0,111.3,0z"></path>
</g>
</svg>
